<svg aria-hidden="true" style="position: absolute; width: 0; height: 0; overflow: hidden;" version="1.1" xmlns="http://www.w3.org/2000/svg" xmlns:xlink="http://www.w3.org/1999/xlink">
<defs>
<symbol id="check-circle" viewBox="0 0 32 32">
<path d="M31.5 16.444c0-8.5-7.003-15.5-15.5-15.5-8.562 0-15.5 7.003-15.5 15.5 0 0.001 0 0.002 0 0.004 0 8.559 6.938 15.497 15.497 15.497 0.001 0 0.002 0 0.004 0h-0c8.5 0 15.5-6.939 15.5-15.5zM14.187 24.693c-0.188 0.174-0.441 0.281-0.718 0.281s-0.53-0.107-0.719-0.281l0.001 0.001-6.5-6.5c-0.174-0.188-0.281-0.441-0.281-0.718s0.107-0.53 0.281-0.719l-0.001 0.001 1.436-1.376c0.163-0.201 0.411-0.329 0.688-0.329s0.525 0.128 0.687 0.328l0.001 0.002 4.437 4.375 9.374-9.374c0.163-0.201 0.411-0.329 0.688-0.329s0.525 0.128 0.687 0.328l0.001 0.002 1.436 1.374c0.174 0.188 0.281 0.441 0.281 0.719s-0.107 0.531-0.282 0.72l0.001-0.001-11.5 11.499z"></path>
</symbol>
<symbol id="facebook" viewBox="0 0 24 32">
<path fill="#b1b1b1" style="fill: var(--color2, #b1b1b1)" d="M15.26 8.433v3.748h7.303l-1.166 5.781h-6.137v14.039h-8.229v-14.039h-6.692v-5.781h6.692v-4.403c-0.001-5.014 3.929-7.778 9.953-7.778 2.883 0 5.894 0.394 5.894 0.394v4.916h-3.327c-3.271 0-4.291 1.54-4.291 3.123z"></path>
</symbol>
<symbol id="footer-logo-mob" viewBox="0 0 100 32">
<path fill="#4a4a4a" style="fill: var(--color1, #4a4a4a)" d="M27.735 22.719c0 2.566-0.847 4.716-2.539 6.449-1.691 1.732-3.795 2.599-6.31 2.599h-7.415v-12.279h4.786v7.806h2.629c1.267 0 2.299-0.419 3.097-1.256 0.799-0.834 1.198-1.94 1.197-3.32 0-1.379-0.399-2.487-1.197-3.323s-1.829-1.254-3.096-1.254h-10.044c-0.039 0.001-0.085 0.001-0.132 0.001-1.429 0-2.779-0.34-3.972-0.945l0.050 0.023c-0.87-0.453-1.614-1.013-2.253-1.674l-0.002-0.002c-1.547-1.568-2.509-3.717-2.532-6.090l-0-0.004v-0.701c0.070-2.417 0.915-4.454 2.532-6.108 1.691-1.732 3.794-2.598 6.31-2.599h7.414v12.281h-4.786v-7.807h-2.629c-1.267 0-2.299 0.418-3.097 1.253-0.799 0.836-1.199 1.943-1.199 3.322 0 1.381 0.4 2.488 1.199 3.323 0.797 0.835 1.829 1.254 3.097 1.255h10.043c2.516 0 4.62 0.866 6.31 2.596 1.693 1.733 2.539 3.884 2.539 6.452z"></path>
<path fill="#e97522" style="fill: var(--color3, #e97522)" d="M44.939 0h-4.278l-4.532 13.647h3.807l0.588-1.969h4.572l0.588 1.969h3.788l-4.533-13.647zM41.427 8.675l1.373-4.64 1.393 4.64h-2.767zM56.065 0h-5.592v9.060h3.611v-5.688h1.982c0.032-0.001 0.070-0.002 0.108-0.002 0.874 0 1.664 0.363 2.227 0.946l0.001 0.001c0.601 0.631 0.902 1.466 0.902 2.505s-0.301 1.875-0.902 2.505c-0.561 0.584-1.349 0.948-2.221 0.948-0.040 0-0.080-0.001-0.12-0.002l0.006 0h-5.592v3.373h5.592c1.897 0 3.483-0.653 4.759-1.959s1.913-2.928 1.913-4.864c0-1.937-0.638-3.558-1.913-4.864s-2.862-1.959-4.759-1.959zM69.957 0h-5.592v3.373h5.592c0.032-0.001 0.070-0.002 0.108-0.002 0.874 0 1.664 0.363 2.226 0.946l0.001 0.001c0.601 0.631 0.902 1.466 0.902 2.505s-0.301 1.875-0.902 2.505c-0.561 0.584-1.349 0.948-2.222 0.948-0.040 0-0.080-0.001-0.119-0.002l0.006 0h-1.982v-5.686h-3.611v9.059h5.592c1.897 0 3.483-0.653 4.758-1.959s1.914-2.928 1.914-4.864c0-1.937-0.638-3.558-1.914-4.864-1.275-1.307-2.861-1.96-4.758-1.96z"></path>
<path fill="#b1b1b1" style="fill: var(--color2, #b1b1b1)" d="M41.466 18.061c0.038-0.001 0.083-0.002 0.128-0.002 0.631 0 1.233 0.12 1.787 0.337l-0.033-0.012c0.625 0.244 1.161 0.59 1.613 1.023l-0.002-0.002c0.941 0.897 1.413 2.041 1.413 3.432s-0.471 2.534-1.413 3.431c-0.45 0.431-0.986 0.777-1.578 1.010l-0.033 0.011c-0.52 0.206-1.123 0.326-1.753 0.326-0.045 0-0.090-0.001-0.135-0.002l0.007 0h-1.825v4.094h-3.512v-13.647h5.337zM41.466 24.299c0.008 0 0.018 0 0.027 0 0.378 0 0.719-0.157 0.962-0.409l0-0c0.25-0.259 0.404-0.612 0.404-1.001 0-0.018-0-0.036-0.001-0.054l0 0.003c0.001-0.017 0.001-0.038 0.001-0.058 0-0.384-0.154-0.732-0.404-0.985l0 0c-0.244-0.247-0.583-0.4-0.958-0.4-0.012 0-0.023 0-0.035 0l0.002-0h-1.825v2.904h1.825zM55.124 18.061h3.493v13.647h-3.493v-5.245h-3.866v5.245h-3.512v-13.647h3.513v5.049h3.866v-5.049zM72.578 29.943c-1.323 1.273-3.124 2.057-5.109 2.057-0.001 0-0.002 0-0.003 0h0c-0.001 0-0.002 0-0.004 0-1.984 0-3.785-0.784-5.11-2.059l0.002 0.002c-0.663-0.64-1.196-1.409-1.559-2.268l-0.017-0.045c-0.326-0.768-0.516-1.66-0.516-2.598 0-0.052 0.001-0.104 0.002-0.156l-0 0.008c-0.001-0.044-0.002-0.095-0.002-0.147 0-0.938 0.19-1.831 0.533-2.644l-0.017 0.045c0.38-0.904 0.913-1.673 1.574-2.311l0.002-0.002c1.323-1.273 3.124-2.057 5.108-2.057 0.001 0 0.003 0 0.004 0h-0c1.908 0 3.741 0.738 5.112 2.057 0.663 0.64 1.196 1.409 1.559 2.268l0.017 0.045c0.36 0.87 0.534 1.805 0.514 2.746 0.001 0.045 0.002 0.097 0.002 0.15 0 0.937-0.189 1.829-0.532 2.641l0.017-0.045c-0.379 0.904-0.912 1.674-1.574 2.311l-0.002 0.002zM64.816 27.545c0.719 0.757 1.732 1.228 2.856 1.228 0.777 0 1.502-0.225 2.112-0.614l-0.016 0.009c0.76-0.483 1.333-1.203 1.619-2.054l0.008-0.027c0.122-0.359 0.192-0.773 0.192-1.203 0-0.515-0.101-1.007-0.284-1.457l0.009 0.026c-0.347-0.853-0.959-1.538-1.734-1.967l-0.020-0.010c-0.545-0.303-1.195-0.482-1.887-0.482-0.259 0-0.512 0.025-0.757 0.073l0.025-0.004c-0.923 0.179-1.712 0.66-2.278 1.336l-0.005 0.006c-0.559 0.666-0.898 1.533-0.899 2.479v0c-0.001 0.035-0.002 0.077-0.002 0.119 0 0.994 0.406 1.894 1.061 2.542l0 0zM85.028 18.061v3.373h-3.395v10.274h-3.512v-10.275h-3.395v-3.372h10.302zM97.402 29.943c-1.323 1.273-3.124 2.057-5.109 2.057-0.001 0-0.002 0-0.003 0h0c-0.001 0-0.002 0-0.004 0-1.984 0-3.785-0.784-5.11-2.059l0.002 0.002c-0.663-0.64-1.196-1.409-1.559-2.268l-0.017-0.045c-0.326-0.768-0.516-1.662-0.516-2.599 0-0.052 0.001-0.103 0.002-0.154l-0 0.008c-0.001-0.044-0.002-0.095-0.002-0.147 0-0.938 0.19-1.831 0.533-2.644l-0.017 0.045c0.379-0.904 0.912-1.673 1.573-2.311l0.002-0.002c1.323-1.273 3.124-2.057 5.108-2.057 0.001 0 0.003 0 0.004 0h-0c1.908 0 3.741 0.738 5.112 2.057 0.663 0.64 1.196 1.409 1.559 2.268l0.017 0.045c0.326 0.767 0.515 1.659 0.515 2.596 0 0.053-0.001 0.105-0.002 0.158l0-0.008c0.001 0.045 0.002 0.097 0.002 0.15 0 0.937-0.189 1.829-0.532 2.641l0.017-0.045c-0.379 0.904-0.912 1.674-1.574 2.311l-0.002 0.002zM89.641 27.545c0.719 0.757 1.732 1.228 2.856 1.228 0.777 0 1.501-0.225 2.111-0.614l-0.016 0.009c0.76-0.483 1.333-1.203 1.619-2.054l0.008-0.027c0.122-0.359 0.192-0.773 0.192-1.203 0-0.515-0.101-1.007-0.284-1.457l0.009 0.026c-0.347-0.853-0.959-1.538-1.734-1.967l-0.020-0.010c-0.545-0.303-1.195-0.482-1.887-0.482-0.259 0-0.512 0.025-0.757 0.073l0.025-0.004c-0.923 0.179-1.712 0.66-2.278 1.336l-0.005 0.006c-0.559 0.666-0.898 1.533-0.899 2.479v0c-0.001 0.035-0.002 0.077-0.002 0.118 0 0.995 0.406 1.895 1.062 2.543l0 0z"></path>
</symbol>
<symbol id="instagram" viewBox="0 0 33 32">
<path fill="#b1b1b1" style="fill: var(--color2, #b1b1b1)" d="M31.487 5.517c-0.433-1.109-1.068-2.054-1.867-2.832l-0.002-0.002c-0.789-0.793-1.744-1.422-2.808-1.829l-0.055-0.018c-1.024-0.395-2.199-0.658-3.925-0.743-1.727-0.073-2.276-0.093-6.666-0.093-4.389 0-4.939 0.019-6.665 0.093-1.716 0.086-2.891 0.348-3.925 0.751-1.119 0.427-2.074 1.056-2.863 1.849l-0 0c-0.801 0.779-1.436 1.725-1.85 2.781l-0.019 0.054c-0.397 1.012-0.663 2.176-0.748 3.874-0.076 1.708-0.095 2.252-0.095 6.597 0 4.346 0.019 4.889 0.095 6.596 0.086 1.708 0.351 2.873 0.759 3.885 0.432 1.11 1.067 2.055 1.866 2.833l0.002 0.002c0.79 0.793 1.745 1.422 2.809 1.829l0.055 0.018c1.024 0.395 2.199 0.667 3.925 0.743 1.726 0.074 2.276 0.093 6.665 0.093 4.39 0 4.939-0.019 6.665-0.093 1.716-0.076 2.891-0.348 3.926-0.743 1.119-0.426 2.073-1.054 2.862-1.847l0-0c0.801-0.779 1.436-1.724 1.85-2.78l0.019-0.054c0.398-1.014 0.673-2.178 0.748-3.885 0.076-1.708 0.095-2.252 0.095-6.597 0-4.346-0.019-4.889-0.095-6.596-0.085-1.699-0.36-2.863-0.758-3.886zM16.165 24.221c-4.588 0-8.306-3.679-8.306-8.221s3.716-8.221 8.306-8.221c4.588 0 8.306 3.679 8.306 8.221s-3.716 8.221-8.306 8.221zM24.802 9.383c-0.002 0-0.005 0-0.007 0-1.065 0-1.929-0.86-1.936-1.923v-0.001c0-1.060 0.873-1.923 1.944-1.923 1.071 0 1.944 0.863 1.944 1.923-0.011 1.065-0.876 1.924-1.943 1.924-0 0-0.001 0-0.001 0h0zM21.561 15.999c0 2.947-2.409 5.331-5.386 5.331s-5.385-2.385-5.385-5.331c0-2.946 2.408-5.331 5.385-5.331 2.968 0 5.385 2.385 5.385 5.331z"></path>
</symbol>
<symbol id="more-icon" viewBox="0 0 57 32">
<path style="stroke: var(--color3, #e97522)" stroke-linejoin="miter" stroke-linecap="round" stroke-miterlimit="4" stroke-width="6.8571" d="M52.571 4.571l-22.322 22.167c-0.43 0.427-1.023 0.69-1.677 0.69s-1.246-0.264-1.677-0.69l0 0-22.325-22.167"></path>
</symbol>
<symbol id="orange-chek" viewBox="0 0 33 32">
<path fill="#e97522" style="fill: var(--color3, #e97522)" d="M32.347 4.96l-18.24 18.4-6.88-6.88 2.4-2.24 4.48 4.48 16-16 2.24 2.24z"></path>
<path fill="#e97522" style="fill: var(--color3, #e97522)" d="M31.387 10.56l-2.24 2.24c0.32 0.96 0.48 2.080 0.48 3.2 0 7.36-5.92 13.12-13.12 13.12-7.36 0-13.12-5.92-13.12-13.12 0-7.36 5.92-13.12 13.12-13.12 2.56 0 5.12 0.8 7.2 2.080l2.080-2.080c-2.56-1.76-5.76-2.88-9.12-2.88-8.8 0-16 7.2-16 16s7.2 16 16 16 16-7.2 16-16c-0.32-1.92-0.64-3.84-1.28-5.44z"></path>
</symbol>
<symbol id="telegram" viewBox="0 0 40 32">
<path fill="#b1b1b1" style="fill: var(--color2, #b1b1b1)" d="M39.948 3.009c-0.097 1.304-0.908 5.862-1.707 10.782l-2.517 14.604s-0.197 2.143-1.915 2.505c-1.707 0.375-4.532-1.304-5.035-1.678-0.405-0.283-7.553-4.467-10.169-6.507-0.699-0.557-1.51-1.679 0.098-2.971 3.623-3.073 7.957-6.882 10.573-9.298 1.204-1.111 2.42-3.719-2.616-0.556l-14.195 8.833s-1.609 0.929-4.631 0.090c-3.021-0.839-6.543-1.948-6.543-1.948s-2.419-1.395 1.707-2.88l23.467-8.923c2.322-0.929 10.169-3.899 10.169-3.899s3.623-1.304 3.315 1.848z"></path>
</symbol>
<symbol id="twitter" viewBox="0 0 35 32">
<path fill="#b1b1b1" style="fill: var(--color2, #b1b1b1)" d="M30.682 5.721c1.513-0.196 2.886-0.617 4.147-1.231l-0.079 0.035c-0.967 1.534-2.144 2.835-3.508 3.907l-0.033 0.025c0.011 0.322 0.022 0.654 0.022 0.986 0 10.024-7.135 21.587-20.18 21.587-4.007 0-7.734-1.251-10.871-3.411 0.559 0.066 1.118 0.099 1.688 0.099 3.322 0 6.378-1.218 8.81-3.245-3.106-0.066-5.725-2.26-6.626-5.272 0.435 0.088 0.881 0.132 1.335 0.132 0.653 0 1.274-0.088 1.875-0.265-3.241-0.698-5.694-3.766-5.694-7.444v-0.099c0.918 0.556 2.018 0.903 3.195 0.952l0.013 0c-1.905-1.363-3.158-3.688-3.158-6.313 0-1.385 0.353-2.692 0.963-3.81 3.499 4.596 8.727 7.609 14.618 7.929-0.118-0.51-0.185-1.097-0.185-1.698 0-0.010 0-0.021 0-0.031v0.002c0-4.188 3.178-7.587 7.092-7.587 2.039 0 3.882 0.919 5.176 2.392 1.705-0.371 3.212-1.007 4.559-1.871l-0.055 0.033c-0.519 1.772-1.636 3.255-3.106 4.198z"></path>
</symbol>
</defs>
</svg>
